<svg width="19" height="10" viewBox="0 0 19 10" fill="none" xmlns="http://www.w3.org/2000/svg">
<path d="M18.18 8.42998V2.20998L15.42 4.99998C15.3205 5.10036 15.2021 5.18004 15.0717 5.23442C14.9412 5.28879 14.8013 5.31679 14.66 5.31679C14.5187 5.31679 14.3787 5.28879 14.2483 5.23442C14.1178 5.18004 13.9995 5.10036 13.9 4.99998L9.99998 1.06998C9.9005 0.969601 9.78212 0.889923 9.65168 0.835546C9.52124 0.78117 9.38131 0.753174 9.23999 0.753174C9.09866 0.753174 8.95874 0.78117 8.82829 0.835546C8.69785 0.889923 8.57946 0.969601 8.47998 1.06998L0.109985 9.50998H17.11C17.2513 9.50998 17.3913 9.48198 17.5218 9.42759C17.6523 9.37319 17.7707 9.29348 17.8701 9.19306C17.9696 9.09264 18.0482 8.9735 18.1014 8.84253C18.1546 8.71155 18.1813 8.57133 18.18 8.42998Z" fill="#A445BB"/>
</svg>
